# xmcd CD Database Entry
#
# Track frame offsets:
# 150
# 3160
# 23136
# 42609
# 62950
# 79024
# 98752
# 117161
# 134416
# 155248
# 174082
# 193449
# 214152
# 234228
# 252956
#
# Disc length: 3647 seconds
#
# Revision: 1
# Processed by: cddbd v1.4PL0 Copyright (c) Steve Scherf et al.
# Submitted via: tcd 2.0b
#
DISCID=cb0e3d0f
DTITLE=Various Artist - Urban Renewal (Featuring The Songs Of Phil 
DTITLE=Collins)
DYEAR=1900
DGENRE=
TTITLE0=Ray J Prelude
TTITLE1=Another Day In Paradise (R&B Version)
TTITLE2=Sussudio
TTITLE3=Something Happened On The Way To Heaven
TTITLE4=This Must Be Love
TTITLE5=In The Air Tonite
TTITLE6=Gotta Hold Over Me (Easy Lover)
TTITLE7=I Don't Care Anymore
TTITLE8=Can't Turn Back The Years
TTITLE9=Do You Remember
TTITLE10=Against All Odds
TTITLE11=One More Night
TTITLE12=All Of My Life
TTITLE13=I Wish It Would Rain Down
TTITLE14=Take Me Home
EXTD=
EXTT0=
EXTT1=
EXTT2=
EXTT3=
EXTT4=
EXTT5=
EXTT6=
EXTT7=
EXTT8=
EXTT9=
EXTT10=
EXTT11=
EXTT12=
EXTT13=
EXTT14=
PLAYORDER=
